<?xml version="1.0" standalone="no"?>
<!DOCTYPE svg PUBLIC "-//W3C//DTD SVG 20010904//EN"
 "http://www.w3.org/TR/2001/REC-SVG-20010904/DTD/svg10.dtd">
<svg version="1.0" xmlns="http://www.w3.org/2000/svg"
 width="465.000000pt" height="465.000000pt" viewBox="0 0 465.000000 465.000000"
 preserveAspectRatio="xMidYMid meet">
<metadata>
Created by potrace 1.14, written by Peter Selinger 2001-2017
</metadata>
<g transform="translate(0.000000,465.000000) scale(0.100000,-0.100000)"
fill="#000000" stroke="none">
<path d="M446 3338 c-47 -75 -179 -315 -179 -325 0 -7 -3 -13 -7 -13 -8 0
-160 -265 -160 -279 0 -5 -4 -11 -8 -13 -4 -1 -27 -36 -50 -76 l-42 -74 0
-629 0 -629 2325 0 2325 0 0 386 c0 371 -1 388 -20 419 -11 18 -33 56 -48 83
-101 185 -217 380 -223 376 -4 -2 -11 1 -15 7 -4 8 -3 9 4 5 7 -4 12 -5 12 -3
0 13 -248 436 -253 431 -3 -3 -4 1 -3 8 0 7 -42 88 -94 180 l-95 167 -1727 1
-1728 0 -14 -22z m3023 -277 c12 -8 12 -16 -2 -53 -24 -63 -22 -78 24 -143 23
-31 47 -75 53 -96 l12 -39 31 22 c27 20 31 30 36 83 9 89 25 157 47 193 18 29
24 32 70 32 48 0 50 -1 50 -27 0 -16 -9 -66 -20 -113 -24 -104 -26 -160 -6
-160 20 0 69 89 96 175 38 118 44 125 96 125 29 0 46 -5 50 -14 3 -8 -2 -58
-11 -112 -56 -341 -70 -418 -91 -494 -55 -192 -118 -270 -218 -270 -77 1 -116
40 -116 120 0 83 61 175 185 281 45 38 75 71 75 83 0 16 -5 14 -30 -13 -40
-41 -104 -44 -140 -6 -21 22 -48 26 -35 5 3 -5 0 -12 -6 -16 -8 -4 -9 -3 -5 4
4 7 3 12 -3 12 -5 0 -12 -4 -15 -9 -6 -9 -64 -25 -83 -22 -7 1 -26 -5 -42 -14
-39 -20 -120 -19 -149 1 -32 22 -45 60 -31 87 16 30 28 37 71 37 45 0 53 11
34 48 -29 56 -41 57 -75 5 -17 -27 -44 -62 -60 -79 -17 -18 -27 -35 -23 -39 4
-5 2 -5 -4 -2 -6 4 -26 -5 -44 -18 -50 -37 -119 -35 -156 4 l-28 30 -33 -30
c-45 -39 -120 -41 -175 -4 -40 27 -53 31 -43 14 4 -6 1 -9 -6 -8 -8 2 -25 -3
-39 -11 -14 -7 -61 -16 -106 -18 -104 -6 -159 16 -201 79 -25 38 -28 51 -28
123 0 70 4 88 29 133 42 77 91 107 181 111 69 4 73 3 103 -28 28 -27 32 -39
32 -82 0 -82 -25 -122 -95 -156 -33 -16 -71 -34 -85 -40 l-25 -10 38 -16 c41
-18 70 -14 128 15 51 25 69 46 69 77 0 72 91 195 166 227 47 19 120 20 131 1
4 -8 26 -16 48 -18 l40 -3 -1 -55 c0 -30 -6 -94 -14 -142 -16 -102 -9 -123 34
-94 34 22 108 115 100 127 -3 5 -1 9 4 9 5 0 28 41 51 91 28 59 50 93 64 99
29 12 78 12 96 1z"/>
<path d="M2540 2940 c-27 -29 -48 -85 -36 -97 8 -9 62 16 81 37 10 11 14 24 9
31 -4 8 -3 10 4 5 18 -11 15 20 -4 38 -21 21 -21 21 -54 -14z"/>
<path d="M2942 2922 c-59 -59 -83 -174 -42 -200 34 -21 64 20 84 114 10 43 20
89 23 102 8 35 -21 28 -65 -16z"/>
<path d="M3755 2444 c-61 -72 -94 -161 -66 -178 10 -6 42 28 59 64 18 37 51
150 44 150 -4 0 -20 -16 -37 -36z"/>
</g>
</svg>
